STARTFONT 2.1
FONT MyProp
SIZE 16 72 72
FONTBOUNDINGBOX 9 21 -1 -7
STARTPROPERTIES 11
FAMILY_NAME "Nabla Prop"
WEIGHT_NAME "Medium"
SLANT "R"
SETWIDTH_NAME "Normal"
SPACING "c"
CHARSET_REGISTRY "ISO10646"
CHARSET_ENCODING "1"
COPYRIGHT "Designer of this font retains full rights under the law"
FONT_ASCENT  14
FONT_DESCENT 7
ENDPROPERTIES
CHARS 118
STARTCHAR C040
ENCODING 32
SWIDTH 437 0
DWIDTH 7 0
BBX 0 0 0 0
BITMAP
ENDCHAR
STARTCHAR C041
ENCODING 33
SWIDTH 500 0
DWIDTH 8 0
BBX 1 1 3 0
BITMAP
80
ENDCHAR
STARTCHAR C042
ENCODING 34
SWIDTH 500 0
DWIDTH 8 0
BBX 1 1 3 0
BITMAP
80
ENDCHAR
STARTCHAR C043
ENCODING 35
SWIDTH 500 0
DWIDTH 8 0
BBX 1 1 3 0
BITMAP
80
ENDCHAR
STARTCHAR C044
ENCODING 36
SWIDTH 500 0
DWIDTH 8 0
BBX 1 1 3 0
BITMAP
80
ENDCHAR
STARTCHAR C045
ENCODING 37
SWIDTH 500 0
DWIDTH 8 0
BBX 1 1 3 0
BITMAP
80
ENDCHAR
STARTCHAR C046
ENCODING 38
SWIDTH 500 0
DWIDTH 8 0
BBX 7 9 0 0
BITMAP
70
88
88
50
22
54
88
94
62
ENDCHAR
STARTCHAR C047
ENCODING 39
SWIDTH 187 0
DWIDTH 3 0
BBX 2 4 0 10
BITMAP
40
40
40
80
ENDCHAR
STARTCHAR C050
ENCODING 40
SWIDTH 500 0
DWIDTH 8 0
BBX 1 1 3 0
BITMAP
80
ENDCHAR
STARTCHAR C051
ENCODING 41
SWIDTH 500 0
DWIDTH 8 0
BBX 1 1 3 0
BITMAP
80
ENDCHAR
STARTCHAR C052
ENCODING 42
SWIDTH 500 0
DWIDTH 8 0
BBX 1 1 3 0
BITMAP
80
ENDCHAR
STARTCHAR C053
ENCODING 43
SWIDTH 500 0
DWIDTH 8 0
BBX 1 1 3 0
BITMAP
80
ENDCHAR
STARTCHAR C054
ENCODING 44
SWIDTH 250 0
DWIDTH 4 0
BBX 2 3 1 -1
BITMAP
40
40
80
ENDCHAR
STARTCHAR C055
ENCODING 45
SWIDTH 312 0
DWIDTH 5 0
BBX 4 1 0 3
BITMAP
f0
ENDCHAR
STARTCHAR C056
ENCODING 46
SWIDTH 187 0
DWIDTH 3 0
BBX 1 2 1 0
BITMAP
80
80
ENDCHAR
STARTCHAR C057
ENCODING 47
SWIDTH 500 0
DWIDTH 8 0
BBX 1 1 3 0
BITMAP
80
ENDCHAR
STARTCHAR C060
ENCODING 48
SWIDTH 500 0
DWIDTH 8 0
BBX 1 1 3 0
BITMAP
80
ENDCHAR
STARTCHAR C061
ENCODING 49
SWIDTH 500 0
DWIDTH 8 0
BBX 1 1 3 0
BITMAP
80
ENDCHAR
STARTCHAR C062
ENCODING 50
SWIDTH 500 0
DWIDTH 8 0
BBX 1 1 3 0
BITMAP
80
ENDCHAR
STARTCHAR C063
ENCODING 51
SWIDTH 500 0
DWIDTH 8 0
BBX 1 1 3 0
BITMAP
80
ENDCHAR
STARTCHAR C064
ENCODING 52
SWIDTH 500 0
DWIDTH 8 0
BBX 1 1 3 0
BITMAP
80
ENDCHAR
STARTCHAR C065
ENCODING 53
SWIDTH 500 0
DWIDTH 8 0
BBX 1 1 3 0
BITMAP
80
ENDCHAR
STARTCHAR C066
ENCODING 54
SWIDTH 500 0
DWIDTH 8 0
BBX 1 1 3 0
BITMAP
80
ENDCHAR
STARTCHAR C067
ENCODING 55
SWIDTH 500 0
DWIDTH 8 0
BBX 1 1 3 0
BITMAP
80
ENDCHAR
STARTCHAR C070
ENCODING 56
SWIDTH 500 0
DWIDTH 8 0
BBX 1 1 3 0
BITMAP
80
ENDCHAR
STARTCHAR C071
ENCODING 57
SWIDTH 500 0
DWIDTH 8 0
BBX 1 1 3 0
BITMAP
80
ENDCHAR
STARTCHAR C072
ENCODING 58
SWIDTH 500 0
DWIDTH 8 0
BBX 1 6 0 0
BITMAP
80
80
00
00
80
80
ENDCHAR
STARTCHAR C073
ENCODING 59
SWIDTH 187 0
DWIDTH 3 0
BBX 2 7 0 -1
BITMAP
40
40
00
00
40
40
80
ENDCHAR
STARTCHAR C074
ENCODING 60
SWIDTH 500 0
DWIDTH 8 0
BBX 1 1 3 0
BITMAP
80
ENDCHAR
STARTCHAR C075
ENCODING 61
SWIDTH 500 0
DWIDTH 8 0
BBX 1 1 3 0
BITMAP
80
ENDCHAR
STARTCHAR C076
ENCODING 62
SWIDTH 500 0
DWIDTH 8 0
BBX 1 1 3 0
BITMAP
80
ENDCHAR
STARTCHAR C077
ENCODING 63
SWIDTH 500 0
DWIDTH 8 0
BBX 7 14 0 0
BITMAP
38
44
82
82
42
04
08
10
10
10
00
00
10
10
ENDCHAR
STARTCHAR C100
ENCODING 64
SWIDTH 500 0
DWIDTH 8 0
BBX 1 1 3 0
BITMAP
80
ENDCHAR
STARTCHAR C101
ENCODING 65
SWIDTH 500 0
DWIDTH 8 0
BBX 7 7 0 0
BITMAP
3a
46
82
82
86
8a
f2
ENDCHAR
STARTCHAR C102
ENCODING 66
SWIDTH 500 0
DWIDTH 8 0
BBX 7 14 0 0
BITMAP
80
80
80
80
80
80
80
be
c2
82
82
82
c4
b8
ENDCHAR
STARTCHAR C103
ENCODING 67
SWIDTH 437 0
DWIDTH 7 0
BBX 6 7 0 0
BITMAP
38
44
80
80
80
84
78
ENDCHAR
STARTCHAR C104
ENCODING 68
SWIDTH 500 0
DWIDTH 8 0
BBX 7 14 0 0
BITMAP
02
02
02
02
02
02
02
3a
46
82
82
86
8a
72
ENDCHAR
STARTCHAR C105
ENCODING 69
SWIDTH 437 0
DWIDTH 7 0
BBX 6 7 0 0
BITMAP
38
44
88
f0
80
80
7c
ENDCHAR
STARTCHAR C106
ENCODING 70
SWIDTH 375 0
DWIDTH 6 0
BBX 5 21 0 -7
BITMAP
18
20
20
20
20
20
20
20
20
20
f8
20
20
20
20
20
20
20
20
20
c0
ENDCHAR
STARTCHAR C107
ENCODING 71
SWIDTH 500 0
DWIDTH 8 0
BBX 7 14 0 -7
BITMAP
3a
46
42
42
46
4a
32
02
02
02
02
02
84
78
ENDCHAR
STARTCHAR C110
ENCODING 72
SWIDTH 500 0
DWIDTH 8 0
BBX 6 14 0 0
BITMAP
80
80
80
80
80
80
80
9c
a4
c4
84
84
84
84
ENDCHAR
STARTCHAR C111
ENCODING 73
SWIDTH 187 0
DWIDTH 3 0
BBX 1 11 1 0
BITMAP
80
80
00
00
80
80
80
80
80
80
80
ENDCHAR
STARTCHAR C112
ENCODING 74
SWIDTH 312 0
DWIDTH 5 0
BBX 4 18 0 -7
BITMAP
10
10
00
00
10
30
50
10
10
10
10
10
10
10
10
10
20
c0
ENDCHAR
STARTCHAR C113
ENCODING 75
SWIDTH 500 0
DWIDTH 8 0
BBX 7 14 0 0
BITMAP
80
80
80
80
80
80
80
9c
a4
c8
d0
e0
98
86
ENDCHAR
STARTCHAR C114
ENCODING 76
SWIDTH 187 0
DWIDTH 3 0
BBX 1 14 1 0
BITMAP
80
80
80
80
80
80
80
80
80
80
80
80
80
80
ENDCHAR
STARTCHAR C115
ENCODING 77
SWIDTH 500 0
DWIDTH 8 0
BBX 7 7 0 0
BITMAP
b4
da
92
92
92
92
92
ENDCHAR
STARTCHAR C116
ENCODING 78
SWIDTH 375 0
DWIDTH 6 0
BBX 5 7 0 0
BITMAP
b0
c8
88
88
88
88
88
ENDCHAR
STARTCHAR C117
ENCODING 79
SWIDTH 500 0
DWIDTH 8 0
BBX 7 7 0 0
BITMAP
3c
42
82
82
82
84
78
ENDCHAR
STARTCHAR C120
ENCODING 80
SWIDTH 437 0
DWIDTH 7 0
BBX 6 14 0 -7
BITMAP
b8
c4
84
84
84
c8
b0
80
80
80
80
80
80
80
ENDCHAR
STARTCHAR C121
ENCODING 81
SWIDTH 500 0
DWIDTH 8 0
BBX 7 14 0 -7
BITMAP
7a
86
82
82
86
8a
72
02
02
02
02
02
02
02
ENDCHAR
STARTCHAR C122
ENCODING 82
SWIDTH 437 0
DWIDTH 7 0
BBX 6 7 0 0
BITMAP
98
a4
c4
80
80
80
80
ENDCHAR
STARTCHAR C123
ENCODING 83
SWIDTH 500 0
DWIDTH 8 0
BBX 7 7 0 0
BITMAP
3c
42
40
3c
02
82
7c
ENDCHAR
STARTCHAR C124
ENCODING 84
SWIDTH 375 0
DWIDTH 6 0
BBX 4 13 1 0
BITMAP
80
80
80
80
80
f0
80
80
80
80
80
80
80
ENDCHAR
STARTCHAR C125
ENCODING 85
SWIDTH 437 0
DWIDTH 7 0
BBX 6 7 0 0
BITMAP
84
84
84
84
8c
94
e4
ENDCHAR
STARTCHAR C126
ENCODING 86
SWIDTH 375 0
DWIDTH 6 0
BBX 5 7 0 0
BITMAP
88
88
90
90
a0
a0
c0
ENDCHAR
STARTCHAR C127
ENCODING 87
SWIDTH 500 0
DWIDTH 8 0
BBX 7 7 0 0
BITMAP
82
92
92
92
b4
d8
90
ENDCHAR
STARTCHAR C130
ENCODING 88
SWIDTH 500 0
DWIDTH 8 0
BBX 7 7 0 0
BITMAP
82
44
28
10
28
44
82
ENDCHAR
STARTCHAR C131
ENCODING 89
SWIDTH 437 0
DWIDTH 7 0
BBX 6 14 0 -7
BITMAP
44
44
44
44
44
4c
34
04
04
04
04
04
88
70
ENDCHAR
STARTCHAR C132
ENCODING 90
SWIDTH 500 0
DWIDTH 8 0
BBX 7 7 0 0
BITMAP
fc
40
20
10
08
04
fe
ENDCHAR
STARTCHAR C133
ENCODING 91
SWIDTH 500 0
DWIDTH 8 0
BBX 1 1 3 0
BITMAP
80
ENDCHAR
STARTCHAR C134
ENCODING 92
SWIDTH 500 0
DWIDTH 8 0
BBX 1 1 3 0
BITMAP
80
ENDCHAR
STARTCHAR C135
ENCODING 93
SWIDTH 500 0
DWIDTH 8 0
BBX 1 1 3 0
BITMAP
80
ENDCHAR
STARTCHAR C136
ENCODING 94
SWIDTH 500 0
DWIDTH 8 0
BBX 1 1 3 0
BITMAP
80
ENDCHAR
STARTCHAR C137
ENCODING 95
SWIDTH 500 0
DWIDTH 8 0
BBX 8 1 0 0
BITMAP
ff
ENDCHAR
STARTCHAR C140
ENCODING 96
SWIDTH 500 0
DWIDTH 8 0
BBX 1 1 3 0
BITMAP
80
ENDCHAR
STARTCHAR C141
ENCODING 97
SWIDTH 500 0
DWIDTH 8 0
BBX 7 7 0 0
BITMAP
3a
46
82
82
86
8a
f2
ENDCHAR
STARTCHAR C142
ENCODING 98
SWIDTH 500 0
DWIDTH 8 0
BBX 7 14 0 0
BITMAP
80
80
80
80
80
80
80
be
c2
82
82
82
c4
b8
ENDCHAR
STARTCHAR C143
ENCODING 99
SWIDTH 437 0
DWIDTH 7 0
BBX 6 7 0 0
BITMAP
38
44
80
80
80
84
78
ENDCHAR
STARTCHAR C144
ENCODING 100
SWIDTH 500 0
DWIDTH 8 0
BBX 7 13 0 0
BITMAP
02
02
02
02
02
02
3a
46
82
82
86
8a
72
ENDCHAR
STARTCHAR C145
ENCODING 101
SWIDTH 437 0
DWIDTH 7 0
BBX 6 7 0 0
BITMAP
38
44
88
f0
80
80
7c
ENDCHAR
STARTCHAR C146
ENCODING 102
SWIDTH 375 0
DWIDTH 6 0
BBX 5 21 0 -7
BITMAP
18
20
20
20
20
20
20
20
20
20
f8
20
20
20
20
20
20
20
20
20
c0
ENDCHAR
STARTCHAR C147
ENCODING 103
SWIDTH 500 0
DWIDTH 8 0
BBX 7 14 0 -7
BITMAP
3a
46
42
42
46
4a
32
02
02
02
02
02
84
78
ENDCHAR
STARTCHAR C150
ENCODING 104
SWIDTH 500 0
DWIDTH 8 0
BBX 6 14 0 0
BITMAP
80
80
80
80
80
80
80
9c
a4
c4
84
84
84
84
ENDCHAR
STARTCHAR C151
ENCODING 105
SWIDTH 250 0
DWIDTH 4 0
BBX 3 11 0 0
BITMAP
40
40
00
00
40
c0
40
40
40
60
40
ENDCHAR
STARTCHAR C152
ENCODING 106
SWIDTH 312 0
DWIDTH 5 0
BBX 4 18 0 -7
BITMAP
10
10
00
00
10
30
50
10
10
10
10
10
10
10
10
10
20
c0
ENDCHAR
STARTCHAR C153
ENCODING 107
SWIDTH 500 0
DWIDTH 8 0
BBX 7 14 0 0
BITMAP
80
80
80
80
80
80
80
9c
a4
c8
d0
e0
98
86
ENDCHAR
STARTCHAR C154
ENCODING 108
SWIDTH 125 0
DWIDTH 2 0
BBX 1 14 0 0
BITMAP
80
80
80
80
80
80
80
80
80
80
80
80
80
80
ENDCHAR
STARTCHAR C155
ENCODING 109
SWIDTH 500 0
DWIDTH 8 0
BBX 7 7 0 0
BITMAP
b4
da
92
92
92
92
92
ENDCHAR
STARTCHAR C156
ENCODING 110
SWIDTH 375 0
DWIDTH 6 0
BBX 5 7 0 0
BITMAP
b0
c8
88
88
88
88
88
ENDCHAR
STARTCHAR C157
ENCODING 111
SWIDTH 500 0
DWIDTH 8 0
BBX 7 7 0 0
BITMAP
3c
42
82
82
82
84
78
ENDCHAR
STARTCHAR C160
ENCODING 112
SWIDTH 437 0
DWIDTH 7 0
BBX 6 14 0 -7
BITMAP
b8
c4
84
84
84
c8
b0
80
80
80
80
80
80
80
ENDCHAR
STARTCHAR C161
ENCODING 113
SWIDTH 500 0
DWIDTH 8 0
BBX 7 14 0 -7
BITMAP
7a
86
82
82
86
8a
72
02
02
02
02
02
02
02
ENDCHAR
STARTCHAR C162
ENCODING 114
SWIDTH 437 0
DWIDTH 7 0
BBX 6 7 0 0
BITMAP
98
a4
c4
80
80
80
80
ENDCHAR
STARTCHAR C163
ENCODING 115
SWIDTH 500 0
DWIDTH 8 0
BBX 7 7 0 0
BITMAP
3c
42
40
3c
02
82
7c
ENDCHAR
STARTCHAR C164
ENCODING 116
SWIDTH 375 0
DWIDTH 6 0
BBX 4 13 1 0
BITMAP
80
80
80
80
80
f0
80
80
80
80
80
80
80
ENDCHAR
STARTCHAR C165
ENCODING 117
SWIDTH 437 0
DWIDTH 7 0
BBX 6 7 0 0
BITMAP
84
84
84
84
8c
94
e4
ENDCHAR
STARTCHAR C166
ENCODING 118
SWIDTH 375 0
DWIDTH 6 0
BBX 5 7 0 0
BITMAP
88
88
90
90
a0
a0
c0
ENDCHAR
STARTCHAR C167
ENCODING 119
SWIDTH 500 0
DWIDTH 8 0
BBX 7 7 0 0
BITMAP
82
92
92
92
b4
d8
90
ENDCHAR
STARTCHAR C170
ENCODING 120
SWIDTH 500 0
DWIDTH 8 0
BBX 7 7 0 0
BITMAP
82
44
28
10
28
44
82
ENDCHAR
STARTCHAR C171
ENCODING 121
SWIDTH 437 0
DWIDTH 7 0
BBX 6 14 0 -7
BITMAP
44
44
44
44
44
4c
34
04
04
04
04
04
88
70
ENDCHAR
STARTCHAR C172
ENCODING 122
SWIDTH 500 0
DWIDTH 8 0
BBX 7 7 0 0
BITMAP
fc
40
20
10
08
04
fe
ENDCHAR
STARTCHAR C173
ENCODING 123
SWIDTH 500 0
DWIDTH 8 0
BBX 1 1 3 0
BITMAP
80
ENDCHAR
STARTCHAR C174
ENCODING 124
SWIDTH 500 0
DWIDTH 8 0
BBX 1 1 3 0
BITMAP
80
ENDCHAR
STARTCHAR C175
ENCODING 125
SWIDTH 500 0
DWIDTH 8 0
BBX 1 1 3 0
BITMAP
80
ENDCHAR
STARTCHAR C176
ENCODING 126
SWIDTH 500 0
DWIDTH 8 0
BBX 1 1 3 0
BITMAP
80
ENDCHAR
STARTCHAR C200
ENCODING 128
SWIDTH 500 0
DWIDTH 8 0
BBX 0 0 0 0
BITMAP
ENDCHAR
STARTCHAR C217
ENCODING 143
SWIDTH 500 0
DWIDTH 8 0
BBX 0 0 0 0
BITMAP
ENDCHAR
STARTCHAR C242
ENCODING 162
SWIDTH 500 0
DWIDTH 8 0
BBX 1 1 3 0
BITMAP
80
ENDCHAR
STARTCHAR C243
ENCODING 163
SWIDTH 500 0
DWIDTH 8 0
BBX 1 1 3 0
BITMAP
80
ENDCHAR
STARTCHAR C244
ENCODING 164
SWIDTH 500 0
DWIDTH 8 0
BBX 1 1 3 0
BITMAP
80
ENDCHAR
STARTCHAR C245
ENCODING 165
SWIDTH 500 0
DWIDTH 8 0
BBX 1 1 3 0
BITMAP
80
ENDCHAR
STARTCHAR C246
ENCODING 166
SWIDTH 500 0
DWIDTH 8 0
BBX 1 1 3 0
BITMAP
80
ENDCHAR
STARTCHAR C247
ENCODING 167
SWIDTH 500 0
DWIDTH 8 0
BBX 1 1 3 0
BITMAP
80
ENDCHAR
STARTCHAR C251
ENCODING 169
SWIDTH 500 0
DWIDTH 8 0
BBX 1 1 3 0
BITMAP
80
ENDCHAR
STARTCHAR C253
ENCODING 171
SWIDTH 500 0
DWIDTH 8 0
BBX 1 1 3 0
BITMAP
80
ENDCHAR
STARTCHAR C254
ENCODING 172
SWIDTH 500 0
DWIDTH 8 0
BBX 1 1 3 0
BITMAP
80
ENDCHAR
STARTCHAR C256
ENCODING 174
SWIDTH 500 0
DWIDTH 8 0
BBX 1 1 3 0
BITMAP
80
ENDCHAR
STARTCHAR C260
ENCODING 176
SWIDTH 500 0
DWIDTH 8 0
BBX 1 1 3 0
BITMAP
80
ENDCHAR
STARTCHAR C262
ENCODING 178
SWIDTH 500 0
DWIDTH 8 0
BBX 1 1 3 0
BITMAP
80
ENDCHAR
STARTCHAR C264
ENCODING 180
SWIDTH 500 0
DWIDTH 8 0
BBX 1 1 3 0
BITMAP
80
ENDCHAR
STARTCHAR C265
ENCODING 181
SWIDTH 500 0
DWIDTH 8 0
BBX 1 1 3 0
BITMAP
80
ENDCHAR
STARTCHAR C266
ENCODING 182
SWIDTH 500 0
DWIDTH 8 0
BBX 1 1 3 0
BITMAP
80
ENDCHAR
STARTCHAR C267
ENCODING 183
SWIDTH 500 0
DWIDTH 8 0
BBX 1 1 3 0
BITMAP
80
ENDCHAR
STARTCHAR C270
ENCODING 184
SWIDTH 500 0
DWIDTH 8 0
BBX 1 1 3 0
BITMAP
80
ENDCHAR
STARTCHAR C272
ENCODING 186
SWIDTH 500 0
DWIDTH 8 0
BBX 1 1 3 0
BITMAP
80
ENDCHAR
STARTCHAR C273
ENCODING 187
SWIDTH 500 0
DWIDTH 8 0
BBX 1 1 3 0
BITMAP
80
ENDCHAR
STARTCHAR C275
ENCODING 189
SWIDTH 500 0
DWIDTH 8 0
BBX 1 1 3 0
BITMAP
80
ENDCHAR
STARTCHAR C277
ENCODING 191
SWIDTH 500 0
DWIDTH 8 0
BBX 1 1 3 0
BITMAP
80
ENDCHAR
ENDFONT
